<?xml version="1.0" encoding="utf-8"?>
<!-- Generator: Adobe Illustrator 17.0.0, SVG Export Plug-In . SVG Version: 6.00 Build 0)  -->
<!DOCTYPE svg PUBLIC "-//W3C//DTD SVG 1.1//EN" "http://www.w3.org/Graphics/SVG/1.1/DTD/svg11.dtd">
<svg version="1.1" id="Layer_1" xmlns="http://www.w3.org/2000/svg" xmlns:xlink="http://www.w3.org/1999/xlink" x="0px" y="0px"
	 width="39.6px" height="39.6px" viewBox="0 0 39.6 39.6" enable-background="new 0 0 39.6 39.6" xml:space="preserve">
<g>
	<path fill="#0054A6" d="M21.751,8.963c2.219,0,3.975,0.498,5.219,1.48c1.278,1.01,1.926,2.446,1.926,4.27
		c0,2.357-0.914,4.307-2.715,5.798c-1.19,0.971-2.612,1.628-4.239,1.96l7.295,11.125c4.262-2.986,7.052-7.93,7.052-13.529
		c0-9.119-7.392-16.511-16.511-16.511S3.269,10.948,3.269,20.066c0,5.648,2.838,10.632,7.164,13.609L15.52,8.963H21.751z"/>
	<path fill="#0054A6" d="M19.664,19.952c1.86,0,3.382-0.471,4.523-1.399c1.126-0.916,1.674-2.077,1.674-3.548
		c0-1.054-0.357-1.84-1.093-2.403c-0.765-0.586-1.893-0.883-3.355-0.883h-3.421l-4.853,23.464c2.032,0.894,4.277,1.394,6.64,1.394
		c2.402,0,4.681-0.517,6.74-1.439l-9.685-15.185H19.664z"/>
</g>
</svg>
